<svg width="27" height="21" viewBox="0 0 27 21" fill="none" xmlns="http://www.w3.org/2000/svg">
<path d="M14.5046 20L13.1046 15.352H6.58059L5.18059 20H0.868594L7.30859 0.456H12.5726L18.9286 20H14.5046ZM9.88459 4.32H9.74459L7.58859 11.74H12.0686L9.88459 4.32ZM24.3634 20.308C23.5234 20.308 22.8981 20.1027 22.4874 19.692C22.0954 19.2627 21.8994 18.7213 21.8994 18.068V17.508C21.8994 16.8547 22.0954 16.3227 22.4874 15.912C22.8981 15.4827 23.5234 15.268 24.3634 15.268C25.2034 15.268 25.8194 15.4827 26.2114 15.912C26.6221 16.3227 26.8274 16.8547 26.8274 17.508V18.068C26.8274 18.7213 26.6221 19.2627 26.2114 19.692C25.8194 20.1027 25.2034 20.308 24.3634 20.308Z" fill="#7B7B7B"/>
</svg>
