<svg width="25" height="15" viewBox="0 0 25 15" fill="none" xmlns="http://www.w3.org/2000/svg">
<path d="M12.5027 10.1229L3.76258 1.13302C3.22019 0.575127 2.34079 0.575127 1.7984 1.13302C1.256 1.69091 1.256 2.59543 1.7984 3.15332L11.5206 13.1533C12.063 13.7112 12.9424 13.7112 13.4848 13.1533L23.207 3.15332C23.7494 2.59543 23.7494 1.69091 23.207 1.13302C22.6646 0.575128 21.7852 0.575128 21.2428 1.13302L12.5027 10.1229Z" fill="#7B7B7B"/>
<mask id="mask0_1762_16662" style="mask-type:alpha" maskUnits="userSpaceOnUse" x="1" y="0" width="23" height="14">
<path d="M12.5027 10.1229L3.76258 1.13302C3.22019 0.575127 2.34079 0.575127 1.7984 1.13302C1.256 1.69091 1.256 2.59543 1.7984 3.15332L11.5206 13.1533C12.063 13.7112 12.9424 13.7112 13.4848 13.1533L23.207 3.15332C23.7494 2.59543 23.7494 1.69091 23.207 1.13302C22.6646 0.575128 21.7852 0.575128 21.2428 1.13302L12.5027 10.1229Z" fill="white"/>
</mask>
<g mask="url(#mask0_1762_16662)">
<rect width="42.8571" height="41.6667" transform="matrix(-4.37114e-08 1 1 4.37114e-08 -8.33359 -15)" fill="#7B7B7B"/>
</g>
</svg>
