<svg width="64" height="64" viewBox="0 0 64 64" fill="none" xmlns="http://www.w3.org/2000/svg">
<rect x="1.5" y="1.5" width="61" height="61" rx="8.5" fill="white" stroke="#ED6F1E" stroke-width="3"/>
<path d="M51 24.1995C51 23.0851 50.5485 22.0157 49.7434 21.2234C48.9296 20.4396 47.8312 20 46.6865 20C45.5418 20 44.4433 20.4396 43.6296 21.2234L27.5808 36.8947L21.0848 30.5239C20.2502 29.8647 19.1943 29.5299 18.1209 29.5842C17.0476 29.6385 16.033 30.0781 15.2731 30.8179C14.5131 31.5578 14.0616 32.5456 14.0059 33.5906C13.9501 34.6355 14.2939 35.6635 14.971 36.4762L24.5239 45.7766C25.3376 46.5604 26.4361 47 27.5808 47C28.7255 47 29.8239 46.5604 30.6377 45.7766L49.7434 27.1757C50.5485 26.3834 51 25.314 51 24.1995Z" fill="#ED6F1E"/>
</svg>
