<svg width="25" height="26" viewBox="0 0 25 26" fill="none" xmlns="http://www.w3.org/2000/svg">
<path d="M14.4084 25.152H11.7764C10.2644 25.152 9.16309 24.7973 8.47242 24.088C7.78176 23.3787 7.43642 22.352 7.43642 21.008V20.196C5.34576 19.8227 3.68442 18.8053 2.45242 17.144C1.23909 15.464 0.632422 13.1587 0.632422 10.228C0.632422 8.56667 0.837755 7.11067 1.24842 5.86C1.65909 4.59067 2.23776 3.536 2.98442 2.696C3.73109 1.83733 4.63642 1.19333 5.70042 0.763999C6.76442 0.334666 7.94042 0.119999 9.22842 0.119999C10.5164 0.119999 11.6924 0.334666 12.7564 0.763999C13.8204 1.19333 14.7258 1.83733 15.4724 2.696C16.2191 3.536 16.7978 4.59067 17.2084 5.86C17.6191 7.11067 17.8244 8.56667 17.8244 10.228C17.8244 13.0653 17.2458 15.3147 16.0884 16.976C14.9498 18.6373 13.3911 19.6827 11.4124 20.112V21.68H14.4084V25.152ZM9.22842 16.556C10.5164 16.556 11.5151 16.136 12.2244 15.296C12.9524 14.456 13.3164 13.252 13.3164 11.684V8.772C13.3164 7.204 12.9524 6 12.2244 5.16C11.5151 4.32 10.5164 3.9 9.22842 3.9C7.94042 3.9 6.93242 4.32 6.20442 5.16C5.49509 6 5.14042 7.204 5.14042 8.772V11.684C5.14042 13.252 5.49509 14.456 6.20442 15.296C6.93242 16.136 7.94042 16.556 9.22842 16.556ZM22.4396 20.308C21.5996 20.308 20.9743 20.1027 20.5636 19.692C20.1716 19.2627 19.9756 18.7213 19.9756 18.068V17.508C19.9756 16.8547 20.1716 16.3227 20.5636 15.912C20.9743 15.4827 21.5996 15.268 22.4396 15.268C23.2796 15.268 23.8956 15.4827 24.2876 15.912C24.6983 16.3227 24.9036 16.8547 24.9036 17.508V18.068C24.9036 18.7213 24.6983 19.2627 24.2876 19.692C23.8956 20.1027 23.2796 20.308 22.4396 20.308Z" fill="#3FBDEE"/>
</svg>
