<svg width="11" height="10" viewBox="0 0 11 10" fill="none" xmlns="http://www.w3.org/2000/svg">
<path d="M11 1.89985C11 1.52837 10.8658 1.17188 10.6264 0.9078C10.3845 0.646539 10.0579 0.5 9.7176 0.5C9.37729 0.5 9.05072 0.646539 8.80879 0.9078L4.03753 6.13155L2.1063 4.00795C1.85816 3.78822 1.54424 3.67663 1.22515 3.69474C0.906054 3.71284 0.604419 3.85935 0.378481 4.10598C0.152544 4.35261 0.018328 4.68187 0.00174312 5.03019C-0.0148417 5.37851 0.0873819 5.72118 0.288679 5.99205L3.12871 9.0922C3.37064 9.35346 3.69722 9.5 4.03753 9.5C4.37784 9.5 4.70442 9.35346 4.94634 9.0922L10.6264 2.8919C10.8658 2.62781 11 2.27133 11 1.89985Z" fill="#E83B3C"/>
</svg>
