<svg width="30" height="30" viewBox="0 0 30 30" fill="none" xmlns="http://www.w3.org/2000/svg">
<rect x="1.5" y="1.5" width="27" height="27" rx="3.5" stroke="#7B7B7B" stroke-width="3"/>
<path d="M23.9062 11.3435C23.9062 10.8211 23.6946 10.3198 23.3172 9.94847C22.9358 9.58107 22.4209 9.375 21.8843 9.375C21.3477 9.375 20.8328 9.58107 20.4514 9.94847L12.9285 17.2944L9.88352 14.3081C9.49227 13.9991 8.99731 13.8421 8.49419 13.8676C7.99108 13.8931 7.51549 14.0991 7.15925 14.4459C6.80302 14.7927 6.5914 15.2558 6.56525 15.7456C6.5391 16.2354 6.70028 16.7173 7.01766 17.0982L11.4956 21.4578C11.877 21.8252 12.3919 22.0312 12.9285 22.0312C13.4651 22.0312 13.98 21.8252 14.3614 21.4578L23.3172 12.7386C23.6946 12.3672 23.9062 11.8659 23.9062 11.3435Z" fill="#7B7B7B"/>
</svg>
