<svg width="14" height="10" viewBox="0 0 14 10" fill="none" xmlns="http://www.w3.org/2000/svg">
<path d="M14 1.55539C14 1.14263 13.8291 0.746537 13.5245 0.453111C13.2166 0.162821 12.801 0 12.3679 0C11.9347 0 11.5191 0.162821 11.2112 0.453111L5.13867 6.25728L2.68075 3.89772C2.36493 3.65358 1.96539 3.52959 1.55928 3.54971C1.15316 3.56982 0.76926 3.73261 0.481704 4.00665C0.194147 4.28068 0.0233265 4.64652 0.00221852 5.03354C-0.0188895 5.42056 0.111213 5.80131 0.367409 6.10228L3.982 9.54689C4.28991 9.83718 4.70555 10 5.13867 10C5.5718 10 5.98744 9.83718 6.29534 9.54689L13.5245 2.65766C13.8291 2.36424 14 1.96814 14 1.55539Z" fill="#ED6F1E"/>
</svg>
