<svg width="120" height="36" viewBox="0 0 120 36" fill="none" xmlns="http://www.w3.org/2000/svg">
<g clip-path="url(#clip0_64_5348)">
<path d="M0 19.8463V33.5033C0 34.0718 0.234848 34.6171 0.652879 35.0191C1.07091 35.4212 1.63788 35.647 2.22907 35.647C2.82026 35.647 3.38723 35.4212 3.80526 35.0191C4.22329 34.6171 4.45814 34.0718 4.45814 33.5033V26.4338C6.42006 27.8012 8.80344 28.4937 11.2244 28.3997C13.6454 28.3058 15.963 27.4308 17.804 25.9159C19.645 24.4009 20.9022 22.3341 21.373 20.0483C21.8439 17.7625 21.5011 15.3908 20.3998 13.3152C19.2986 11.2396 17.5029 9.58094 15.3021 8.60633C13.1012 7.63171 10.6234 7.3979 8.26754 7.94255C5.91171 8.48721 3.81508 9.77862 2.31533 11.6088C0.815582 13.439 1.90338e-05 15.7013 0 18.0316L0 19.8463ZM10.7928 23.8181C9.60284 23.8181 8.43956 23.4787 7.45011 22.8429C6.46066 22.207 5.68948 21.3033 5.23408 20.246C4.77869 19.1886 4.65954 18.0251 4.89169 16.9027C5.12385 15.7802 5.69689 14.7491 6.53835 13.9399C7.37981 13.1306 8.4519 12.5795 9.61903 12.3562C10.7862 12.133 11.9959 12.2475 13.0954 12.6855C14.1948 13.1235 15.1345 13.8652 15.7956 14.8167C16.4567 15.7683 16.8096 16.8871 16.8096 18.0316C16.8101 18.7916 16.6547 19.5442 16.3525 20.2465C16.0503 20.9487 15.6071 21.5868 15.0483 22.1242C14.4896 22.6616 13.8261 23.0879 13.0959 23.3785C12.3657 23.6691 11.5831 23.8185 10.7928 23.8181Z" fill="#E83F2F"/>
<path d="M48.6907 23.3495C45.9467 23.3495 45.7843 21.4417 45.7186 18.9888C45.7614 18.6091 45.7834 18.2274 45.7843 17.8454C45.7843 12.1952 41.1775 7.61185 35.4925 7.61185C29.8075 7.61185 25.1904 12.1919 25.1904 17.8454C25.1904 23.499 29.8006 28.0757 35.4856 28.0757C38.3471 28.0757 40.9391 26.5801 42.8053 24.7022C43.8939 26.6133 45.6979 28.1488 48.6803 28.1488H48.7287C48.8705 28.1471 49.0059 28.0917 49.1055 27.9946C49.2051 27.8976 49.2609 27.7667 49.2609 27.6303V23.8679C49.2606 23.7974 49.2453 23.7277 49.2161 23.663C49.187 23.5982 49.1444 23.5399 49.0911 23.4914C49.0378 23.443 48.9749 23.4054 48.906 23.381C48.8372 23.3566 48.764 23.3459 48.6907 23.3495ZM35.4856 23.5489C32.3165 23.5489 29.7453 20.993 29.7453 17.8454C29.7453 14.6979 32.3165 12.1387 35.4856 12.1387C38.6547 12.1387 41.2225 14.6946 41.2225 17.8454C41.2225 20.9963 38.6547 23.5489 35.4856 23.5489Z" fill="#ED6F20"/>
<path d="M71.8382 12.7669C68.0851 9.29362 63.0636 7.78135 58.8059 10.7295L58.7506 9.26039C58.7479 8.74705 58.5335 8.25574 58.1544 7.89431C57.7754 7.53289 57.2627 7.33089 56.7289 7.33265H56.0377C55.5034 7.33265 54.9909 7.5368 54.6131 7.90019C54.2352 8.26358 54.0229 8.75645 54.0229 9.27036V26.1713C54.0229 26.6852 54.2352 27.178 54.6131 27.5414C54.9909 27.9048 55.5034 28.109 56.0377 28.109H56.7289C56.9941 28.1098 57.2568 28.0604 57.5021 27.9634C57.7473 27.8664 57.9703 27.7238 58.1581 27.5438C58.3459 27.3638 58.4949 27.1498 58.5966 26.9143C58.6983 26.6788 58.7506 26.4263 58.7506 26.1713L58.9787 14.4154C58.9787 14.1462 59.231 14.0265 59.4902 13.9268C59.7494 13.8271 59.6734 13.8504 59.9499 13.7407C60.1342 13.6608 60.328 13.6028 60.527 13.5679C62.9461 13.0893 65.5346 13.8604 68.206 16.1504C68.4027 16.3143 68.6543 16.4045 68.9145 16.4045C69.1748 16.4045 69.4263 16.3143 69.623 16.1504L71.8106 14.2492C71.9172 14.1557 72.0028 14.0422 72.0622 13.9158C72.1217 13.7893 72.1537 13.6525 72.1562 13.5138C72.1588 13.375 72.132 13.2372 72.0773 13.1088C72.0226 12.9804 71.9413 12.864 71.8382 12.7669Z" fill="#FCC137"/>
<path d="M85.9765 7.33266C83.8411 7.332 81.7535 7.94055 79.9779 9.08129C78.2023 10.222 76.8184 11.8437 76.0014 13.7411C75.1844 15.6385 74.971 17.7263 75.3882 19.7404C75.8053 21.7544 76.8343 23.6042 78.345 25.0557C79.8556 26.5071 81.78 27.495 83.8747 27.8943C85.9693 28.2935 88.14 28.0863 90.112 27.2987C92.0841 26.5112 93.769 25.1787 94.9534 23.4699C96.1378 21.7611 96.7686 19.7528 96.7659 17.6992C96.7631 14.9489 95.6252 12.3122 93.6021 10.3683C91.579 8.42452 88.8362 7.33266 85.9765 7.33266ZM85.9765 23.4957C84.7865 23.4957 83.6232 23.1563 82.6337 22.5205C81.6443 21.8847 80.8731 20.9809 80.4177 19.9236C79.9623 18.8662 79.8432 17.7028 80.0753 16.5803C80.3075 15.4578 80.8805 14.4267 81.722 13.6175C82.5634 12.8082 83.6355 12.2571 84.8027 12.0338C85.9698 11.8106 87.1796 11.9252 88.279 12.3631C89.3784 12.8011 90.3181 13.5428 90.9792 14.4944C91.6404 15.4459 91.9932 16.5647 91.9932 17.7092C91.9905 19.2421 91.3554 20.7114 90.2273 21.7944C89.0992 22.8774 87.5704 23.4857 85.9765 23.4857V23.4957Z" fill="#44BDEE"/>
<path d="M110.362 9.80547C108.525 9.80309 106.726 10.3071 105.178 11.2579V2.49671C105.178 1.92814 104.943 1.38287 104.525 0.980832C104.107 0.578797 103.54 0.352936 102.949 0.352936C102.357 0.352936 101.79 0.578797 101.372 0.980832C100.954 1.38287 100.72 1.92814 100.72 2.49671V18.7528C100.718 18.7749 100.718 18.7972 100.72 18.8193C100.72 18.9024 100.72 18.9888 100.72 19.0752C100.72 20.9086 101.285 22.7008 102.344 24.2252C103.403 25.7496 104.908 26.9377 106.67 27.6393C108.431 28.3409 110.369 28.5245 112.238 28.1668C114.108 27.8091 115.826 26.9263 117.174 25.6299C118.522 24.3335 119.44 22.6818 119.811 20.8836C120.183 19.0855 119.993 17.2217 119.263 15.5278C118.533 13.834 117.298 12.3863 115.713 11.3677C114.128 10.3491 112.264 9.80547 110.358 9.80547H110.362ZM110.406 24.1505C109.007 24.1505 107.665 23.6157 106.675 22.6639C105.685 21.7122 105.129 20.4212 105.129 19.0752C105.129 17.7292 105.685 16.4383 106.675 15.4865C107.665 14.5347 109.007 14 110.406 14C111.089 14.0007 111.765 14.1323 112.395 14.387C113.024 14.6418 113.595 15.0146 114.073 15.4836C114.551 15.9527 114.927 16.5086 115.179 17.119C115.432 17.7294 115.555 18.3819 115.542 19.0386C115.556 19.6992 115.434 20.3559 115.184 20.971C114.933 21.5861 114.558 22.1473 114.08 22.6225C113.603 23.0976 113.033 23.4772 112.402 23.7395C111.772 24.0017 111.093 24.1414 110.406 24.1505Z" fill="#65BD9D"/>
<path d="M2.38804 20.3748C3.70692 20.3748 4.77608 19.3465 4.77608 18.0781C4.77608 16.8097 3.70692 15.7814 2.38804 15.7814C1.06916 15.7814 0 16.8097 0 18.0781C0 19.3465 1.06916 20.3748 2.38804 20.3748Z" fill="#C01818"/>
<path d="M19.1942 20.3748C20.5131 20.3748 21.5822 19.3465 21.5822 18.0781C21.5822 16.8097 20.5131 15.7814 19.1942 15.7814C17.8753 15.7814 16.8062 16.8097 16.8062 18.0781C16.8062 19.3465 17.8753 20.3748 19.1942 20.3748Z" fill="#C01818"/>
<path d="M77.5716 19.9859C78.8905 19.9859 79.9597 18.9576 79.9597 17.6892C79.9597 16.4208 78.8905 15.3926 77.5716 15.3926C76.2528 15.3926 75.1836 16.4208 75.1836 17.6892C75.1836 18.9576 76.2528 19.9859 77.5716 19.9859Z" fill="#0CA0CD"/>
<path d="M94.3812 19.9859C95.7001 19.9859 96.7692 18.9576 96.7692 17.6892C96.7692 16.4208 95.7001 15.3926 94.3812 15.3926C93.0623 15.3926 91.9932 16.4208 91.9932 17.6892C91.9932 18.9576 93.0623 19.9859 94.3812 19.9859Z" fill="#0CA0CD"/>
<path d="M102.952 21.219C104.183 21.219 105.181 20.2592 105.181 19.0752C105.181 17.8912 104.183 16.9314 102.952 16.9314C101.721 16.9314 100.723 17.8912 100.723 19.0752C100.723 20.2592 101.721 21.219 102.952 21.219Z" fill="#059B64"/>
<path d="M117.771 21.1824C119.002 21.1824 120 20.2226 120 19.0386C120 17.8547 119.002 16.8949 117.771 16.8949C116.54 16.8949 115.542 17.8547 115.542 19.0386C115.542 20.2226 116.54 21.1824 117.771 21.1824Z" fill="#059B64"/>
<path d="M43.0676 24.7221C44.6518 24.7221 45.936 23.487 45.936 21.9635C45.936 20.4399 44.6518 19.2048 43.0676 19.2048C41.4835 19.2048 40.1992 20.4399 40.1992 21.9635C40.1992 23.487 41.4835 24.7221 43.0676 24.7221Z" fill="#B74C18"/>
<path d="M56.7875 15.2363C58.3049 15.2363 59.5349 14.0533 59.5349 12.594C59.5349 11.1347 58.3049 9.95171 56.7875 9.95171C55.2701 9.95171 54.04 11.1347 54.04 12.594C54.04 14.0533 55.2701 15.2363 56.7875 15.2363Z" fill="#EEA30F"/>
</g>
<defs>
<clipPath id="clip0_64_5348">
<rect width="120" height="35.2941" fill="white" transform="translate(0 0.352936)"/>
</clipPath>
</defs>
</svg>
