<svg width="960" height="540" viewBox="0 0 960 540" fill="none" xmlns="http://www.w3.org/2000/svg">
<mask id="mask0_546_11898" style="mask-type:alpha" maskUnits="userSpaceOnUse" x="0" y="70" width="960" height="470">
<rect y="70" width="960" height="470" fill="#CBF1FF"/>
</mask>
<g mask="url(#mask0_546_11898)">
<rect y="48.2473" width="960" height="491.753" fill="#CBECFF"/>
<g opacity="0.5" clip-path="url(#clip0_546_11898)">
<path d="M13.3234 78.9999H38.5134C40.382 78.9999 41.9384 77.4954 41.9971 75.5903C42.0452 74.0886 41.5994 72.7149 39.7147 72.9984C35.7851 73.5844 33.9324 73.9877 33.9324 73.9877C33.9324 73.9877 29.9334 67.5965 24.9547 68.0217C12.9577 69.0437 19.5969 74.9008 18.5851 74.9008C17.6988 74.9008 8.47548 73.3309 10.2187 77.0593C10.782 78.2667 12.0126 78.9999 13.3234 78.9999Z" fill="#EEFBFF"/>
</g>
<g opacity="0.5" clip-path="url(#clip1_546_11898)">
<path d="M659.186 77.3428H684.376C686.244 77.3428 687.801 75.8383 687.859 73.9332C687.907 72.4315 687.462 71.0578 685.577 71.3413C681.647 71.9273 679.795 72.3306 679.795 72.3306C679.795 72.3306 675.796 65.9394 670.817 66.3646C658.82 67.3866 665.459 73.2437 664.447 73.2437C663.561 73.2437 654.338 71.6738 656.081 75.4022C656.644 76.6096 657.875 77.3428 659.186 77.3428Z" fill="#EEFBFF"/>
</g>
<g opacity="0.5" clip-path="url(#clip2_546_11898)">
<line y1="-0.5" x2="10.9174" y2="-0.5" transform="matrix(0.414635 0.909988 -0.908134 0.41868 42.0967 97.3473)" stroke="white"/>
<line y1="-0.5" x2="10.9174" y2="-0.5" transform="matrix(0.414635 0.909988 -0.908134 0.41868 42.0967 97.3473)" stroke="white"/>
<line y1="-0.5" x2="10.9174" y2="-0.5" transform="matrix(0.414635 0.909988 -0.908134 0.41868 42.0967 97.3473)" stroke="white"/>
<line y1="-0.5" x2="10.9174" y2="-0.5" transform="matrix(-0.414635 0.909988 0.908134 0.41868 55.6768 97.3473)" stroke="white"/>
<line y1="-0.5" x2="10.9174" y2="-0.5" transform="matrix(-0.414635 0.909988 0.908134 0.41868 55.6768 97.3473)" stroke="white"/>
<line y1="-0.5" x2="10.9174" y2="-0.5" transform="matrix(-0.414635 0.909988 0.908134 0.41868 55.6768 97.3473)" stroke="white"/>
<path d="M50.2571 111.343H47.467C46.6028 111.343 45.8662 110.714 45.7222 109.857L45.3929 107.878C45.3189 107.435 45.6604 107.03 46.1049 107.03H51.6111C52.0596 107.03 52.3971 107.435 52.323 107.878L51.9938 109.857C51.8497 110.714 51.1131 111.343 50.2489 111.343H50.2571Z" fill="#EFC6A3"/>
<path d="M54.5199 99.0802C57.6441 95.9376 57.6441 90.8424 54.5199 87.6998C51.3957 84.5572 46.3304 84.5572 43.2062 87.6998C40.082 90.8424 40.082 95.9376 43.2062 99.0802C46.3304 102.223 51.3957 102.223 54.5199 99.0802Z" fill="#F9C0C8"/>
</g>
<g opacity="0.5" clip-path="url(#clip3_546_11898)">
<line y1="-0.5" x2="11.0377" y2="-0.5" transform="matrix(0.435748 0.900069 -0.917361 0.398056 38.1738 387.347)" stroke="white"/>
<line y1="-0.5" x2="11.0377" y2="-0.5" transform="matrix(0.435748 0.900069 -0.917361 0.398056 38.1738 387.347)" stroke="white"/>
<line y1="-0.5" x2="11.0377" y2="-0.5" transform="matrix(0.435748 0.900069 -0.917361 0.398056 38.1738 387.347)" stroke="white"/>
<line y1="-0.5" x2="11.0377" y2="-0.5" transform="matrix(-0.435748 0.900069 0.917361 0.398056 52.603 387.347)" stroke="white"/>
<line y1="-0.5" x2="11.0377" y2="-0.5" transform="matrix(-0.435748 0.900069 0.917361 0.398056 52.603 387.347)" stroke="white"/>
<line y1="-0.5" x2="11.0377" y2="-0.5" transform="matrix(-0.435748 0.900069 0.917361 0.398056 52.603 387.347)" stroke="white"/>
<path d="M46.8445 401.343H43.88C42.9618 401.343 42.1791 400.714 42.0261 399.857L41.6763 397.878C41.5976 397.435 41.9605 397.03 42.4327 397.03H48.283C48.7596 397.03 49.1182 397.435 49.0395 397.878L48.6897 399.857C48.5366 400.714 47.754 401.343 46.8358 401.343H46.8445Z" fill="#EFC6A3"/>
<path d="M51.3735 389.08C54.693 385.938 54.693 380.842 51.3735 377.7C48.0541 374.557 42.6721 374.557 39.3527 377.7C36.0332 380.842 36.0332 385.938 39.3527 389.08C42.6721 392.223 48.0541 392.223 51.3735 389.08Z" fill="#F9C0C8"/>
</g>
<g opacity="0.5" clip-path="url(#clip4_546_11898)">
<path d="M105.082 118.343H129.485C131.295 118.343 132.803 117.112 132.86 115.553C132.906 114.325 132.474 113.201 130.648 113.433C126.842 113.912 125.047 114.242 125.047 114.242C125.047 114.242 121.173 109.013 116.35 109.361C104.728 110.197 111.159 114.989 110.179 114.989C109.321 114.989 100.385 113.705 102.074 116.755C102.62 117.743 103.812 118.343 105.082 118.343Z" fill="#EEFBFF"/>
</g>
<g opacity="0.5" clip-path="url(#clip5_546_11898)">
<path d="M100.082 410.343H124.485C126.295 410.343 127.803 408.975 127.86 407.243C127.906 405.878 127.474 404.629 125.648 404.887C121.842 405.42 120.047 405.786 120.047 405.786C120.047 405.786 116.173 399.976 111.35 400.363C99.7275 401.292 106.159 406.616 105.179 406.616C104.321 406.616 95.3854 405.189 97.0742 408.579C97.6198 409.676 98.8121 410.343 100.082 410.343Z" fill="#EEFBFF"/>
</g>
<g opacity="0.5" clip-path="url(#clip6_546_11898)">
<path d="M779.978 118.343H803.594C805.345 118.343 806.805 117.112 806.86 115.553C806.905 114.325 806.487 113.201 804.72 113.433C801.036 113.912 799.299 114.242 799.299 114.242C799.299 114.242 795.55 109.013 790.882 109.361C779.635 110.197 785.859 114.989 784.911 114.989C784.08 114.989 775.433 113.705 777.067 116.755C777.595 117.743 778.749 118.343 779.978 118.343Z" fill="#EEFBFF"/>
</g>
<g opacity="0.5" clip-path="url(#clip7_546_11898)">
<path d="M775.082 410.343H799.485C801.295 410.343 802.803 408.975 802.86 407.243C802.906 405.878 802.474 404.629 800.648 404.887C796.842 405.42 795.047 405.786 795.047 405.786C795.047 405.786 791.173 399.976 786.35 400.363C774.728 401.292 781.159 406.616 780.179 406.616C779.321 406.616 770.385 405.189 772.074 408.579C772.62 409.676 773.812 410.343 775.082 410.343Z" fill="#EEFBFF"/>
</g>
<g opacity="0.5" clip-path="url(#clip8_546_11898)">
<path d="M181.082 70.3429H205.485C207.295 70.3429 208.803 68.9752 208.86 67.2433C208.906 65.8781 208.474 64.6293 206.648 64.887C202.842 65.4197 201.047 65.7864 201.047 65.7864C201.047 65.7864 197.173 59.9762 192.35 60.3627C180.728 61.2919 187.159 66.6164 186.179 66.6164C185.321 66.6164 176.385 65.1893 178.074 68.5788C178.62 69.6764 179.812 70.3429 181.082 70.3429Z" fill="#EEFBFF"/>
</g>
<g opacity="0.5" clip-path="url(#clip9_546_11898)">
<path d="M177.186 360.343H202.376C204.245 360.343 205.801 358.839 205.86 356.933C205.908 355.432 205.462 354.058 203.577 354.342C199.648 354.927 197.795 355.331 197.795 355.331C197.795 355.331 193.796 348.94 188.817 349.365C176.82 350.387 183.46 356.244 182.448 356.244C181.562 356.244 172.338 354.674 174.081 358.402C174.645 359.61 175.875 360.343 177.186 360.343Z" fill="#EEFBFF"/>
</g>
<g opacity="0.5" clip-path="url(#clip10_546_11898)">
<path d="M856.082 70.3429H880.485C882.295 70.3429 883.803 68.9752 883.86 67.2433C883.906 65.8781 883.474 64.6293 881.648 64.887C877.842 65.4197 876.047 65.7864 876.047 65.7864C876.047 65.7864 872.173 59.9762 867.35 60.3627C855.728 61.2919 862.159 66.6164 861.179 66.6164C860.321 66.6164 851.385 65.1893 853.074 68.5788C853.62 69.6764 854.812 70.3429 856.082 70.3429Z" fill="#EEFBFF"/>
</g>
<g opacity="0.5" clip-path="url(#clip11_546_11898)">
<path d="M850.978 360.343H874.594C876.346 360.343 877.805 358.839 877.86 356.933C877.905 355.432 877.487 354.058 875.72 354.342C872.036 354.927 870.299 355.331 870.299 355.331C870.299 355.331 866.55 348.94 861.883 349.365C850.636 350.387 856.86 356.244 855.911 356.244C855.08 356.244 846.434 354.674 848.068 358.402C848.596 359.61 849.75 360.343 850.978 360.343Z" fill="#EEFBFF"/>
</g>
<g opacity="0.5" clip-path="url(#clip12_546_11898)">
<line y1="-0.5" x2="11.8491" y2="-0.5" transform="matrix(0.429787 0.902931 -0.914866 0.403759 831.251 429.271)" stroke="white"/>
<line y1="-0.5" x2="11.8491" y2="-0.5" transform="matrix(0.429787 0.902931 -0.914866 0.403759 831.251 429.271)" stroke="white"/>
<line y1="-0.5" x2="11.8491" y2="-0.5" transform="matrix(0.429787 0.902931 -0.914866 0.403759 831.251 429.271)" stroke="white"/>
<line y1="-0.5" x2="11.8491" y2="-0.5" transform="matrix(-0.429787 0.902931 0.914866 0.403759 846.529 429.271)" stroke="white"/>
<line y1="-0.5" x2="11.8491" y2="-0.5" transform="matrix(-0.429787 0.902931 0.914866 0.403759 846.529 429.271)" stroke="white"/>
<line y1="-0.5" x2="11.8491" y2="-0.5" transform="matrix(-0.429787 0.902931 0.914866 0.403759 846.529 429.271)" stroke="white"/>
<path d="M840.431 444.343H837.292C836.32 444.343 835.492 443.665 835.33 442.742L834.959 440.612C834.876 440.135 835.26 439.698 835.76 439.698H841.955C842.459 439.698 842.839 440.135 842.755 440.612L842.385 442.742C842.223 443.665 841.394 444.343 840.422 444.343H840.431Z" fill="#EFC6A3"/>
<path d="M845.227 431.137C848.742 427.753 848.742 422.265 845.227 418.881C841.712 415.497 836.014 415.497 832.499 418.881C828.984 422.265 828.984 427.753 832.499 431.137C836.014 434.521 841.712 434.521 845.227 431.137Z" fill="#F9C0C8"/>
</g>
<g opacity="0.5" clip-path="url(#clip13_546_11898)">
<line y1="-0.5" x2="12.0798" y2="-0.5" transform="matrix(0.398157 0.917317 -0.900121 0.435641 908.174 379.732)" stroke="white"/>
<line y1="-0.5" x2="12.0798" y2="-0.5" transform="matrix(0.398157 0.917317 -0.900121 0.435641 908.174 379.732)" stroke="white"/>
<line y1="-0.5" x2="12.0798" y2="-0.5" transform="matrix(0.398157 0.917317 -0.900121 0.435641 908.174 379.732)" stroke="white"/>
<line y1="-0.5" x2="12.0798" y2="-0.5" transform="matrix(-0.398157 0.917317 0.900121 0.435641 922.603 379.732)" stroke="white"/>
<line y1="-0.5" x2="12.0798" y2="-0.5" transform="matrix(-0.398157 0.917317 0.900121 0.435641 922.603 379.732)" stroke="white"/>
<line y1="-0.5" x2="12.0798" y2="-0.5" transform="matrix(-0.398157 0.917317 0.900121 0.435641 922.603 379.732)" stroke="white"/>
<path d="M916.845 395.343H913.88C912.962 395.343 912.179 394.641 912.026 393.685L911.676 391.478C911.598 390.984 911.961 390.532 912.433 390.532H918.283C918.76 390.532 919.118 390.984 919.039 391.478L918.69 393.685C918.537 394.641 917.754 395.343 916.836 395.343H916.845Z" fill="#EFC6A3"/>
<path d="M921.374 381.665C924.693 378.16 924.693 372.477 921.374 368.972C918.054 365.467 912.672 365.467 909.353 368.972C906.033 372.477 906.033 378.16 909.353 381.665C912.672 385.17 918.054 385.17 921.374 381.665Z" fill="#F9C0C8"/>
</g>
<g opacity="0.5" clip-path="url(#clip14_546_11898)">
<path d="M57.0818 272.343H81.4846C83.2949 272.343 84.8026 270.838 84.8595 268.933C84.9061 267.431 84.4742 266.058 82.6484 266.341C78.8416 266.927 77.0468 267.331 77.0468 267.331C77.0468 267.331 73.1728 260.939 68.3496 261.365C56.7275 262.387 63.1593 268.244 62.1791 268.244C61.3205 268.244 52.3854 266.674 54.0742 270.402C54.6198 271.61 55.8121 272.343 57.0818 272.343Z" fill="#EEFBFF"/>
</g>
<g opacity="0.5" clip-path="url(#clip15_546_11898)">
<path d="M731.186 272.343H756.376C758.244 272.343 759.801 270.838 759.859 268.933C759.907 267.431 759.462 266.058 757.577 266.341C753.647 266.927 751.795 267.331 751.795 267.331C751.795 267.331 747.796 260.939 742.817 261.365C730.82 262.387 737.459 268.244 736.447 268.244C735.561 268.244 726.338 266.674 728.081 270.402C728.644 271.61 729.875 272.343 731.186 272.343Z" fill="#EEFBFF"/>
</g>
<g opacity="0.5" clip-path="url(#clip16_546_11898)">
<path d="M132.186 222.343H157.376C159.244 222.343 160.801 220.838 160.859 218.933C160.907 217.431 160.462 216.058 158.577 216.341C154.647 216.927 152.795 217.331 152.795 217.331C152.795 217.331 148.796 210.939 143.817 211.365C131.82 212.387 138.459 218.244 137.447 218.244C136.561 218.244 127.338 216.674 129.081 220.402C129.644 221.61 130.875 222.343 132.186 222.343Z" fill="#EEFBFF"/>
</g>
<g opacity="0.5" clip-path="url(#clip17_546_11898)">
<path d="M807.186 222.343H832.376C834.244 222.343 835.801 220.838 835.859 218.933C835.907 217.431 835.462 216.058 833.577 216.341C829.647 216.927 827.795 217.331 827.795 217.331C827.795 217.331 823.796 210.939 818.817 211.365C806.82 212.387 813.459 218.244 812.447 218.244C811.561 218.244 802.338 216.674 804.081 220.402C804.644 221.61 805.875 222.343 807.186 222.343Z" fill="#EEFBFF"/>
</g>
<g opacity="0.5" clip-path="url(#clip18_546_11898)">
<line y1="-0.5" x2="11.97" y2="-0.5" transform="matrix(0.378175 0.925734 -0.889308 0.457308 789.097 291.732)" stroke="white"/>
<line y1="-0.5" x2="11.97" y2="-0.5" transform="matrix(0.378175 0.925734 -0.889308 0.457308 789.097 291.732)" stroke="white"/>
<line y1="-0.5" x2="11.97" y2="-0.5" transform="matrix(0.378175 0.925734 -0.889308 0.457308 789.097 291.732)" stroke="white"/>
<line y1="-0.5" x2="11.97" y2="-0.5" transform="matrix(-0.378175 0.925734 0.889308 0.457308 802.677 291.732)" stroke="white"/>
<line y1="-0.5" x2="11.97" y2="-0.5" transform="matrix(-0.378175 0.925734 0.889308 0.457308 802.677 291.732)" stroke="white"/>
<line y1="-0.5" x2="11.97" y2="-0.5" transform="matrix(-0.378175 0.925734 0.889308 0.457308 802.677 291.732)" stroke="white"/>
<path d="M797.257 307.343H794.467C793.603 307.343 792.866 306.641 792.722 305.685L792.393 303.478C792.319 302.984 792.66 302.532 793.105 302.532H798.611C799.06 302.532 799.397 302.984 799.323 303.478L798.994 305.685C798.85 306.641 798.113 307.343 797.249 307.343H797.257Z" fill="#EFC6A3"/>
<path d="M801.52 293.665C804.644 290.16 804.644 284.477 801.52 280.972C798.396 277.467 793.33 277.467 790.206 280.972C787.082 284.477 787.082 290.16 790.206 293.665C793.33 297.17 798.396 297.17 801.52 293.665Z" fill="#F9C0C8"/>
</g>
<g opacity="0.5" clip-path="url(#clip19_546_11898)">
<line y1="-0.5" x2="11.3829" y2="-0.5" transform="matrix(0.422536 0.906346 -0.911716 0.410822 190.174 241.809)" stroke="white"/>
<line y1="-0.5" x2="11.3829" y2="-0.5" transform="matrix(0.422536 0.906346 -0.911716 0.410822 190.174 241.809)" stroke="white"/>
<line y1="-0.5" x2="11.3829" y2="-0.5" transform="matrix(0.422536 0.906346 -0.911716 0.410822 190.174 241.809)" stroke="white"/>
<line y1="-0.5" x2="11.3829" y2="-0.5" transform="matrix(-0.422536 0.906346 0.911716 0.410822 204.603 241.809)" stroke="white"/>
<line y1="-0.5" x2="11.3829" y2="-0.5" transform="matrix(-0.422536 0.906346 0.911716 0.410822 204.603 241.809)" stroke="white"/>
<line y1="-0.5" x2="11.3829" y2="-0.5" transform="matrix(-0.422536 0.906346 0.911716 0.410822 204.603 241.809)" stroke="white"/>
<path d="M198.845 256.343H195.88C194.962 256.343 194.179 255.69 194.026 254.8L193.676 252.745C193.598 252.285 193.961 251.864 194.433 251.864H200.283C200.76 251.864 201.118 252.285 201.039 252.745L200.69 254.8C200.537 255.69 199.754 256.343 198.836 256.343H198.845Z" fill="#EFC6A3"/>
<path d="M203.374 243.609C206.693 240.345 206.693 235.054 203.374 231.79C200.054 228.527 194.672 228.527 191.353 231.79C188.033 235.054 188.033 240.345 191.353 243.609C194.672 246.872 200.054 246.872 203.374 243.609Z" fill="#F9C0C8"/>
</g>
</g>
<rect width="960" height="70" fill="#CBECFF"/>
<defs>
<clipPath id="clip0_546_11898">
<rect width="32" height="11" fill="white" transform="translate(10 68)"/>
</clipPath>
<clipPath id="clip1_546_11898">
<rect width="32" height="11" fill="white" transform="translate(655.862 66.3429)"/>
</clipPath>
<clipPath id="clip2_546_11898">
<rect width="16" height="26" fill="white" transform="translate(40.8623 85.3429)"/>
</clipPath>
<clipPath id="clip3_546_11898">
<rect width="17" height="26" fill="white" transform="translate(36.8623 375.343)"/>
</clipPath>
<clipPath id="clip4_546_11898">
<rect width="31" height="9" fill="white" transform="translate(101.862 109.343)"/>
</clipPath>
<clipPath id="clip5_546_11898">
<rect width="31" height="10" fill="white" transform="translate(96.8623 400.343)"/>
</clipPath>
<clipPath id="clip6_546_11898">
<rect width="30" height="9" fill="white" transform="translate(776.862 109.343)"/>
</clipPath>
<clipPath id="clip7_546_11898">
<rect width="31" height="10" fill="white" transform="translate(771.862 400.343)"/>
</clipPath>
<clipPath id="clip8_546_11898">
<rect width="31" height="10" fill="white" transform="translate(177.862 60.3429)"/>
</clipPath>
<clipPath id="clip9_546_11898">
<rect width="32" height="11" fill="white" transform="translate(173.862 349.343)"/>
</clipPath>
<clipPath id="clip10_546_11898">
<rect width="31" height="10" fill="white" transform="translate(852.862 60.3429)"/>
</clipPath>
<clipPath id="clip11_546_11898">
<rect width="30" height="11" fill="white" transform="translate(847.862 349.343)"/>
</clipPath>
<clipPath id="clip12_546_11898">
<rect width="18" height="28" fill="white" transform="translate(829.862 416.343)"/>
</clipPath>
<clipPath id="clip13_546_11898">
<rect width="17" height="29" fill="white" transform="translate(906.862 366.343)"/>
</clipPath>
<clipPath id="clip14_546_11898">
<rect width="31" height="11" fill="white" transform="translate(53.8623 261.343)"/>
</clipPath>
<clipPath id="clip15_546_11898">
<rect width="32" height="11" fill="white" transform="translate(727.862 261.343)"/>
</clipPath>
<clipPath id="clip16_546_11898">
<rect width="32" height="11" fill="white" transform="translate(128.862 211.343)"/>
</clipPath>
<clipPath id="clip17_546_11898">
<rect width="32" height="11" fill="white" transform="translate(803.862 211.343)"/>
</clipPath>
<clipPath id="clip18_546_11898">
<rect width="16" height="29" fill="white" transform="translate(787.862 278.343)"/>
</clipPath>
<clipPath id="clip19_546_11898">
<rect width="17" height="27" fill="white" transform="translate(188.862 229.343)"/>
</clipPath>
</defs>
</svg>
